<svg viewBox="0 0 59.98 68.87" xmlns="http://www.w3.org/2000/svg" xmlns:xlink="http://www.w3.org/1999/xlink"><linearGradient id="a" gradientUnits="userSpaceOnUse" x1="3.14" x2="42.28" y1="37.01" y2="37.01"><stop offset=".04" stop-color="#f27b40"/><stop offset="1" stop-color="#ec697d"/></linearGradient><path d="m13.77 14.89a3 3 0 0 1 -3.61-2.23l-2.1-9a3 3 0 0 1 5.84-1.35l2.1 9a3 3 0 0 1 -2.23 3.58z" fill="#732e54"/><path d="m38.77 14.8h-34.47l1.38-3.88a.75.75 0 0 1 .72-.51h30.28a.76.76 0 0 1 .72.51z" fill="#fff"/><path d="m53.75 28-20.07 13a2.65 2.65 0 1 1 -2.88-4.44l20.07-13a2.64 2.64 0 0 1 2.88 4.44z" fill="#389bf3" opacity=".8"/><path d="m26.93 45.42-13.42 8.72a2.64 2.64 0 1 1 -2.88-4.43l13.42-8.71a2.65 2.65 0 0 1 2.88 4.44z" fill="#ff9d23" opacity=".8"/><path d="m44.32 24.91-20.06 13.09a2.65 2.65 0 0 1 -2.88-4.44l20.06-13a2.64 2.64 0 1 1 2.88 4.43z" fill="#aa7dff"/><path d="m17.5 42.35-13.42 8.72a2.64 2.64 0 0 1 -2.88-4.43l13.42-8.72a2.64 2.64 0 1 1 2.88 4.43z" fill="#389bf3"/><path d="m50.38 21-.13.08a2.65 2.65 0 0 1 -2.88-4.44l.13-.08a2.65 2.65 0 0 1 2.88 4.44z" fill="#ff9d23"/><path d="m52.73 37.84-20.07 13a2.64 2.64 0 1 1 -2.88-4.43l20.07-13a2.64 2.64 0 0 1 2.88 4.43z" fill="#389bf3" opacity=".5"/><path d="m25.91 55.27-13.42 8.73a2.64 2.64 0 1 1 -2.88-4.43l13.39-8.73a2.64 2.64 0 0 1 2.88 4.43z" fill="#aa7dff" opacity=".5"/><path d="m58.78 33.9-.12.08a2.64 2.64 0 1 1 -2.88-4.43l.12-.08a2.64 2.64 0 1 1 2.88 4.43z" fill="#ff9d23" opacity=".5"/><path d="m40.41 19.76-2.9 46.57a1.84 1.84 0 0 1 -1.83 1.73h-25.68a1.85 1.85 0 0 1 -1.84-1.73l-2.86-46.57" fill="#fff"/><path d="m40 19.57-2.87 46.57a1.85 1.85 0 0 1 -1.84 1.73h-25.64a1.84 1.84 0 0 1 -1.84-1.73l-.73-11.65a14.25 14.25 0 0 0 11.09 1.88c4.57-1.13 8.34-4.52 10.78-8.55s3.67-8.65 4.57-13.27a107.65 107.65 0 0 0 1.8-15z" fill="#cec1bc"/><path d="m40 20.57-2.87 45.57a1.85 1.85 0 0 1 -1.84 1.73h-25.65a1.85 1.85 0 0 1 -1.84-1.73l-2.89-45.57" fill="none" stroke="#732e54" stroke-linecap="round" stroke-miterlimit="10" stroke-width="2"/><path d="m2.76 15.45h38.88a.74.74 0 0 1 .74.74v3.51a.74.74 0 0 1 -.74.74h-38.88a.89.89 0 0 1 -.89-.89v-3.2a.89.89 0 0 1 .89-.9z" fill="none" stroke="#732e54" stroke-linecap="round" stroke-miterlimit="10" stroke-width="2"/><path d="m4.69 15.2 1.38-3.89a.78.78 0 0 1 .72-.51h12.5" fill="none" stroke="#732e54" stroke-linecap="round" stroke-miterlimit="10" stroke-width="2"/><path d="m39.17 15.2-1.38-3.89a.78.78 0 0 0 -.72-.51h-12.5" fill="none" stroke="#732e54" stroke-linecap="round" stroke-miterlimit="10" stroke-width="2"/><path d="m41.28 47.04h-37.15l-1-20.06h39.15z" fill="url(#a)"/><g fill="none" stroke-linecap="round" stroke-miterlimit="10"><path d="m40.23 47.14h-35.23a1 1 0 0 1 -1-1l-.9-18.06a1 1 0 0 1 1-1.05h37a1 1 0 0 1 1 1.05l-.9 18.06a1 1 0 0 1 -.97 1z" stroke="#732e54" stroke-width="2"/><path d="m11.16 43.98h1.1" opacity=".3" stroke="#fff"/><path d="m6.93 38.07.26 4.43a1.58 1.58 0 0 0 1.57 1.5" stroke="#fff"/><path d="m6.8 34.36.06 1.33" opacity=".6" stroke="#fff"/><path d="m6.6 30.53.09 1.89" stroke="#fff"/></g></svg>