<svg viewBox="0 0 32 32" xmlns="http://www.w3.org/2000/svg"><path d="m0 6v2h19v15h-6.15625c-.445312-1.71875-1.992187-3-3.84375-3-1.851562 0-3.398437 1.28125-3.84375 3h-1.15625v-5h-2v7h3.15625c.445313 1.71875 1.992188 3 3.84375 3 1.851563 0 3.398438-1.28125 3.84375-3h8.3125c.445313 1.71875 1.992188 3 3.84375 3 1.851563 0 3.398438-1.28125 3.84375-3h3.15625v-8.15625l-.0625-.15625-2-6-.21875-.6875h-8.71875v-4zm1 4v2h9v-2zm20 2h7.28125l1.71875 5.125v5.875h-1.15625c-.445312-1.71875-1.992187-3-3.84375-3-1.851562 0-3.398437 1.28125-3.84375 3h-.15625zm-19 2v2h6v-2zm7 8c1.117188 0 2 .882813 2 2 0 1.117188-.882812 2-2 2-1.117187 0-2-.882812-2-2 0-1.117187.882813-2 2-2zm16 0c1.117188 0 2 .882813 2 2 0 1.117188-.882812 2-2 2-1.117187 0-2-.882812-2-2 0-1.117187.882813-2 2-2z"/></svg>